# xmcd CD database file
#
# Track frame offsets:
#	150
#	17100
#	34875
#
# Disc length: 677 seconds
#
# Revision: 0
# Processed by: cddbd v1.5.1PL2 Copyright (c) Steve Scherf et al.
# Submitted via: CDex 1.51
#
DISCID=1d02a303
DTITLE=ハンバートハンバート - 今晩はお月さん
DYEAR=2006
DGENRE=Pop
TTITLE0=今晩はお月さん
TTITLE1=春一番
TTITLE2=ライブの日
EXTD=YEAR: 2006
EXTT0=
EXTT1=
EXTT2=
PLAYORDER=
